# xmcd
#
# Track frame offsets:
#	150
#	19450
#	34210
#	51252
#	68690
#	88332
#	104360
#	126045
#	140895
#	160187
#	174947
#	191995
#	209380
#	229007
#	245022
#	266670
#	292937
#
# Disc length: 3918 seconds
#
# Revision: 2
# Processed by: cddbd v1.5.1PL2 Copyright (c) Steve Scherf et al.
# Submitted via: audiograbber 1.83.01
#
DISCID=030f4c11
DTITLE=Sound Choice - Sc3246
DYEAR=1900
DGENRE=Karaoke Country
TTITLE0=Gill, Vince - Shoot Straight From Your Heart
TTITLE1=Montgomery, John Michael - That'S What I Like About You
TTITLE2=Brooks and Dunn - Ain'T Nothing 'Bout You
TTITLE3=Chesney, Kenny - Don'T Happen Twice
TTITLE4=Ketchum, Hal - She Is (Radio Version)
TTITLE5=Cyrus, Billy Ray - Burn Down The Trailer Park
TTITLE6=Sons Of The Desert - What I Did Right (Radio Version)
TTITLE7=Dixie Chicks - If I Fall You'Re Going Down With Me
TTITLE8=Gill, Vince - Shoot Straight From Your Heart (Vocals)
TTITLE9=Montgomery, John Michael - That'S What I Like About You (Vocals)
TTITLE10=Brooks and Dunn - Ain'T Nothing 'Bout You (Vocals)
TTITLE11=Chesney, Kenny - Don'T Happen Twice (Vocals)
TTITLE12=Ketchum, Hal - She Is (Radio Version) (Vocals)
TTITLE13=Cyrus, Billy Ray - Burn Down The Trailer Park (Vocals)
TTITLE14=Sons Of The Desert - What I Did Right (Radio Version) (Vocals)
TTITLE15=Dixie Chicks - If I Fall You'Re Going Down With Me (Vocals)
TTITLE16=Must Specify An Artist - Data Track
EXTD=Tracks 9-16 Demos
EXTT0=
EXTT1=
EXTT2=
EXTT3=
EXTT4=
EXTT5=
EXTT6=
EXTT7=
EXTT8=
EXTT9=
EXTT10=
EXTT11=
EXTT12=
EXTT13=
EXTT14=
EXTT15=
EXTT16=
PLAYORDER=
